HIERARCHY
ROOT Hips
{
    OFFSET 13.897937774658203 94.26903533935547 -18.311172485351562
    CHANNELS 6 Xposition Yposition Zposition Zrotation Xrotation Yrotation
    JOINT RightUpLeg
    {
        OFFSET -13.897937774658203 0.0 0.0
        CHANNELS 3 Zrotation Xrotation Yrotation
        JOINT RightLeg
        {
            OFFSET 0.0 -48.49109649658203 0.0
            CHANNELS 3 Zrotation Xrotation Yrotation
            JOINT RightFoot
            {
                OFFSET 0.0 -45.77793884277344 0.0
                CHANNELS 3 Zrotation Xrotation Yrotation
                End Site
                {
                    OFFSET 0.0 0.0 18.311172485351562
                }
            }
        }
    }
    JOINT LeftUpLeg
    {
        OFFSET 13.897937774658203 0.0 0.0
        CHANNELS 3 Zrotation Xrotation Yrotation
        JOINT LeftLeg
        {
            OFFSET 0.0 -48.49109649658203 0.0
            CHANNELS 3 Zrotation Xrotation Yrotation
            JOINT LeftFoot
            {
                OFFSET 0.0 -45.77793884277344 0.0
                CHANNELS 3 Zrotation Xrotation Yrotation
                End Site
                {
                    OFFSET 0.0 0.0 18.311172485351562
                }
            }
        }
    }
    JOINT Spine
    {
        OFFSET 0.0 25.775718688964844 0.0
        CHANNELS 3 Zrotation Xrotation Yrotation
        JOINT Spine3
        {
            OFFSET 0.0 25.762327194213867 0.0
            CHANNELS 3 Zrotation Xrotation Yrotation
            JOINT Neck
            {
                OFFSET 0.0 11.676852226257324 0.0
                CHANNELS 3 Zrotation Xrotation Yrotation
                End Site
                {
                    OFFSET 0.0 4.670741081237793 0.0
                }
            }
            JOINT LeftArm
            {
                OFFSET 14.512945175170898 0.0 0.0
                CHANNELS 3 Zrotation Xrotation Yrotation
                JOINT LeftForeArm
                {
                    OFFSET 29.265605926513672 0.0 0.0
                    CHANNELS 3 Zrotation Xrotation Yrotation
                    JOINT LeftHand
                    {
                        OFFSET 24.438520431518555 0.0 0.0
                        CHANNELS 3 Zrotation Xrotation Yrotation
                        End Site
                        {
                            OFFSET 9.775407791137695 0.0 0.0
                        }
                    }
                }
            }
            JOINT RightArm
            {
                OFFSET -14.512945175170898 0.0 0.0
                CHANNELS 3 Zrotation Xrotation Yrotation
                JOINT RightForeArm
                {
                    OFFSET -29.265605926513672 0.0 0.0
                    CHANNELS 3 Zrotation Xrotation Yrotation
                    JOINT RightHand
                    {
                        OFFSET -24.438520431518555 0.0 0.0
                        CHANNELS 3 Zrotation Xrotation Yrotation
                        End Site
                        {
                            OFFSET -9.775407791137695 0.0 0.0
                        }
                    }
                }
            }
        }
    }
}
MOTION
Frames: 9
Frame Time: 0.03333333333333333
-3.3046966564143077e-05 93.76109313964844 -0.0006628857809118927 -5.7283731944217235 -16.266957996545365 -12.831419113192155 4.07140533998752 25.615644393741587 -2.84083993451447 -4.13540058938497 6.723961605094154 -0.20624471436103745 -9.939233379573492e-17 -3.1929787231879844e-15 -1.7393658414253612e-16 9.565177115015613 24.11226694150921 -4.986191890022987 -0.32514005789038186 9.372421556055002 -1.7574501147398849 1.5902773407317582e-15 -5.517382872562698e-33 -3.9756933518293955e-16 5.81610967043533 30.65460682379895 -4.253545834409166 2.183932359830536e-08 -1.3245198993501756e-06 -1.4080042784169304 3.374358236066398 0.6116267166214062 179.9812758224936 135.49434076134827 -42.545551267907136 -152.43644733904563 8.007832230359486e-06 7.973824599081559e-07 86.7767175854725 0.0 0.0 0.0 -132.495987424308 -39.36338248685109 152.78662521894978 -5.749062503934866e-06 -3.307492462859475e-07 -83.74643635831269 0.0 0.0 -6.3611093629270335e-15
-3.827085311058909e-05 93.76103210449219 -0.00066130340564996 -6.006304166434005 -16.053364986489235 -12.841549004776812 4.840356210590872 25.340202412348546 -3.011583849353069 -4.327544677333163 7.063029416494559 -0.24573117255945334 -9.93923337957349e-17 -1.2424041724466862e-17 4.472655020808071e-16 10.154665208315706 23.580907660325504 -4.9994812925979915 -0.25532030981438814 9.73910903310857 -1.8905490728045606 1.5902773407317588e-15 -3.586298867165754e-32 -2.584200678689108e-15 6.541297210229581 30.881798701157578 -4.498890033059986 -3.252562603034822e-07 -1.2683919811960494e-07 -1.7093126293466627 3.0461910256414724 0.21035056385882142 -179.0616408435089 135.17332929334285 -43.497823278717114 -153.50568883907857 4.055800518505217e-06 -5.533003177109882e-07 78.851854164127 -3.1805546814635168e-15 6.3611093629270335e-15 1.7655625192200634e-31 -130.09654482084625 -38.236618967988825 154.9589362714504 -7.348837233044134e-06 -2.29905138476045e-07 -75.29147211584883 1.5902773407317592e-15 -6.361109362927033e-15 1.2722218725854065e-14
-5.9550166042754427e-05 93.76113891601562 -0.0007216056692413986 -5.944561373747594 -15.678112150816563 -13.383874021571238 4.8322658307818775 24.70526543261518 -3.0237843402956512 -4.466619025640482 7.815973193753088 -0.28146896818130207 2.981770013872048e-16 -6.1423989010951914e-33 -2.3605679276487042e-15 9.78960224415078 22.818227546760312 -4.782514959684798 0.46065452643408217 10.208757492676128 -2.097427405750452 0.0 0.0 5.963540027744094e-16 6.7249273963918155 31.540526163669625 -4.791062247860647 -8.604994834999332e-08 2.3304997722099927e-07 -1.4368642018189288 2.2395463950389196 -0.7723937854257689 -179.94359080333876 135.1114158990127 -44.014203124718364 -154.02201019145454 3.1804259459039566e-06 2.337537310427786e-06 68.98422981801868 -3.1805546814635164e-15 -1.7655625192200634e-31 6.361109362927033e-15 -129.52654271158465 -38.38231443085629 155.093594852954 9.004143186151732e-07 1.6087433818255017e-06 -64.95099167004261 -1.5902773407317584e-15 0.0 0.0
-8.081137639237568e-05 93.76117706298828 -0.0007573877228423953 -5.87435241744344 -15.480357806886907 -13.615593683524029 4.91872556783574 24.465033676272487 -3.08790998156674 -4.594528047790091 7.9260932982270615 -0.29690840500042875 4.9696166897867443e-17 6.2120208622334304e-18 -1.242404172446686e-16 9.706452788788505 22.13174415890773 -4.665869978554735 0.54003493271703 10.62987837012855 -2.2177254382609197 1.0483027457869126e-31 3.1805546814635164e-15 -3.776908684237925e-15 6.646485121681037 32.10596815895256 -4.89658861460905 -2.0514425805343286e-07 1.1527549384700597e-06 -1.24629533969246 2.0564658715329203 -1.5086948372812372 179.85672556652747 133.59860448127526 -43.84106170151529 -155.15129436794038 2.63628328486964e-06 -4.406870812102775e-06 57.68593582793412 6.3611093629270335e-15 0.0 0.0 -128.789010875049 -39.37986808840346 155.0084474645089 -2.9212541636659574e-06 3.553736114552739e-07 -52.12290627829177 -5.168401357378214e-15 0.0 0.0
-0.00010092052980326116 93.76123046875 -0.0007611546898260713 -5.477749225981338 -15.705651195497918 -13.14038519009975 5.012998867783856 24.52797809622216 -3.252923121880057 -5.1272109458412505 8.140953355609218 -0.2770070315750065 -9.939233379573489e-17 1.2424041724466861e-17 -7.454425034680117e-16 9.525119701694363 21.834026299897992 -4.644217874284428 0.544436813979415 10.777304933509326 -2.271366478492694 0.0 0.0 -5.963540027744094e-16 6.321291218839772 32.79902890229588 -4.964917125297685 3.189278418778049e-07 -1.2105607778879785e-07 -1.0169549583756743 2.0299144213973928 -1.8492466143206086 179.5886960706336 132.522897303162 -44.36389028039123 -155.56147281966363 1.4141414221077185e-06 1.721157072500555e-06 46.5279222386916 -7.062250076880254e-31 6.3611093629270335e-15 1.2722218725854067e-14 -130.07663269141392 -42.11151135502026 153.4939535682448 1.1300881480691865e-06 -3.201598783764193e-06 -41.074677627783096 8.74652537402467e-15 6.3611093629270335e-15 -4.855296927855174e-31
-0.00010563890100456774 93.76107025146484 -0.0007199543761089444 -5.622421151205904 -15.838063767908412 -13.155865448610237 5.596786825754456 24.855440510246545 -3.523961247252329 -5.20270421448765 8.087830987763043 -0.3307141351477389 -1.4908850069360237e-16 3.1805546814635168e-15 5.590818776010088e-16 10.092732005582022 21.69487945766759 -4.8169458842106305 0.017673977321224395 11.932792194665895 -2.50419404003581 1.5902773407317588e-15 1.987846675914699e-16 2.584200678689108e-15 6.7136592556509544 33.39993474849481 -5.239498409221683 -2.339492171027242e-07 1.07637207281731e-06 -0.8006652214763846 2.243191620212027 -2.4219303381021544 -179.18574768887416 126.97266133588839 -42.03962433530754 -159.08969386936798 -2.6758868332658846e-06 7.338967409462314e-06 36.425306177821994 3.1805546814635168e-15 -1.7655625192200634e-31 -6.3611093629270335e-15 -128.7213993270627 -42.632479952755055 154.94543094775045 1.8789450151003056e-07 2.187749937879563e-06 -33.65578429758978 -7.156248033292914e-15 -3.1805546814635168e-15 -1.9862578341225716e-31
-4.213734428049065e-05 93.76102447509766 -0.0006672764429822564 -5.546123803026029 -15.722171012599715 -13.076927167969735 5.943785734714594 24.718020060618315 -3.6846414902491826 -5.058309258697403 8.200218717497018 -0.4114882295445705 7.454425034680116e-17 -6.182809420181344e-34 -9.504391919217147e-16 10.427300747417263 21.37788366488837 -4.905078929055279 -0.2861998655957024 12.502130013001317 -2.644220355906917 0.0 0.0 1.9878466759146985e-16 6.991079085402797 33.688841982076646 -5.477121930968791 -2.218079709373548e-08 -5.724023808955557e-07 -0.8646248409062074 1.8465550785021347 -2.728760104700397 -178.78583079985881 122.09389381260586 -37.59034635357311 -162.2403471110492 5.0486440796122335e-06 -5.090017772625644e-06 29.750228216297902 3.531125038440127e-31 -6.3611093629270335e-15 6.3611093629270335e-15 -126.13897347378713 -41.065170119951986 157.13045557874602 -5.546552861388633e-06 8.342384694051851e-07 -30.050285545403657 8.74652537402467e-15 -2.427648463927587e-31 -3.1805546814635168e-15
-9.730092642712407e-06 93.76102447509766 -0.0006278551300056279 -5.491367212729105 -15.544748404431466 -13.134742583895612 5.944514212342233 24.658750213532386 -3.7424310295913084 -4.680897126589182 8.144109332043397 -0.4827988321616096 0.0 0.0 -9.81499296232882e-16 10.56494140989016 20.99843754148721 -4.931854367105992 -0.30916219549570956 12.670235313559346 -2.7434256374794574 1.5902773407317582e-15 -3.1805546814635164e-15 -2.385416011097637e-15 7.017781087368299 33.62647011465328 -5.570456611257276 1.5333650681451946e-07 -1.3761102032849854e-06 -0.41775829080667976 1.8498972851818176 -2.6763304667991075 -179.93226721847196 117.81374204183352 -32.43288281946464 -165.06894643274683 2.8687810713688142e-06 -2.6687687749387664e-06 25.530892528691076 -1.5902773407317584e-15 8.827812596100317e-32 -6.3611093629270335e-15 -124.46999137603706 -39.85031898573388 158.3903882973769 2.8985962034469966e-06 -2.349320652167116e-07 -27.365338423343836 -3.1805546814635168e-15 3.1805546814635168e-15 -3.1805546814635168e-15
-2.1050800569355488e-05 93.76107788085938 -0.0006469613872468472 -5.283128027360265 -15.20826465007137 -13.080255026903393 5.710524461701089 24.52475900519697 -3.661805214664768 -4.050545858070076 7.694910927516206 -0.5244701683864653 0.0 0.0 -1.7393658414253612e-16 10.380218699753472 20.376670413352535 -4.757521613009384 -0.2738151155207497 12.873243440178065 -2.7861830228869295 0.0 0.0 4.174478019420866e-15 7.343349448863593 33.393716449319996 -5.7695773242878206 -3.3030455771857257e-07 1.7905655802063451e-07 -0.30406422200991734 1.2752401036283425 -2.800854008722594 179.32388190190542 115.32222286021225 -29.716244134127813 -167.75420064483046 9.114996965482884e-07 -4.073442679992904e-06 23.794474758533333 -7.951386703658792e-15 3.1805546814635176e-15 -6.3611093629270335e-15 -121.87363034173987 -39.22588508609714 161.5625606748395 2.8070178065724926e-06 1.0861652860755343e-06 -27.519693297647635 7.951386703658792e-16 4.4139062980501586e-32 6.3611093629270335e-15
